<?xml version="1.0" standalone="no"?>
<!DOCTYPE svg PUBLIC "-//W3C//DTD SVG 20010904//EN"
 "http://www.w3.org/TR/2001/REC-SVG-20010904/DTD/svg10.dtd">
<svg version="1.0" xmlns="http://www.w3.org/2000/svg"
 width="512.000000pt" height="512.000000pt" viewBox="0 0 512.000000 512.000000"
 preserveAspectRatio="xMidYMid meet">
<metadata>
Created by potrace 1.14, written by Peter Selinger 2001-2017
</metadata>
<g transform="translate(0.000000,512.000000) scale(0.100000,-0.100000)"
fill="#000000" stroke="none">
<path d="M279 5097 c-121 -41 -204 -119 -251 -234 l-23 -58 -3 -2225 c-2
-2190 -2 -2226 17 -2290 38 -123 121 -214 238 -262 l58 -23 2240 0 c1786 0
2249 3 2282 13 68 20 164 91 206 152 20 30 46 83 57 118 20 63 20 101 20 2272
0 2171 0 2209 -20 2272 -43 141 -143 237 -285 274 -41 11 -450 14 -2260 14
l-2210 -1 -66 -22z m2000 -2149 c151 -472 278 -858 281 -858 3 0 129 386 280
858 l275 857 395 0 395 0 3 -1248 2 -1247 -302 2 -303 3 -3 240 c-2 164 7 441
28 874 17 348 30 634 28 636 -2 2 -88 -247 -192 -553 -104 -307 -238 -702
-298 -879 l-110 -323 -198 0 -198 0 -89 263 c-50 144 -184 538 -299 875 -154
450 -210 604 -212 580 -2 -19 9 -264 23 -546 16 -331 25 -630 25 -843 l0 -329
-300 0 -300 0 0 1243 c0 684 3 1247 7 1250 4 4 182 6 396 5 l390 -3 276 -857z"/>
</g>
</svg>
